<svg width="329" height="12" viewBox="0 0 329 12" fill="none" xmlns="http://www.w3.org/2000/svg">
<path opacity="0.8" d="M4.98 9.084C4.348 9.084 3.764 8.976 3.228 8.76C2.692 8.544 2.224 8.24 1.824 7.848C1.432 7.456 1.124 6.996 0.9 6.468C0.684 5.94 0.576 5.364 0.576 4.74C0.576 4.124 0.684 3.552 0.9 3.024C1.124 2.496 1.432 2.04 1.824 1.656C2.224 1.264 2.692 0.96 3.228 0.744C3.764 0.528 4.348 0.42 4.98 0.42C5.612 0.42 6.196 0.528 6.732 0.744C7.276 0.96 7.748 1.264 8.148 1.656C8.548 2.04 8.856 2.496 9.072 3.024C9.296 3.552 9.408 4.124 9.408 4.74C9.408 5.364 9.296 5.94 9.072 6.468C8.856 6.996 8.548 7.456 8.148 7.848C7.748 8.24 7.276 8.544 6.732 8.76C6.196 8.976 5.612 9.084 4.98 9.084ZM4.98 8.64C5.54 8.64 6.056 8.548 6.528 8.364C7.008 8.172 7.428 7.904 7.788 7.56C8.148 7.216 8.428 6.808 8.628 6.336C8.836 5.864 8.94 5.34 8.94 4.764C8.94 4.212 8.84 3.7 8.64 3.228C8.44 2.748 8.16 2.332 7.8 1.98C7.448 1.628 7.032 1.356 6.552 1.164C6.072 0.964 5.548 0.864 4.98 0.864C4.42 0.864 3.9 0.964 3.42 1.164C2.94 1.356 2.52 1.628 2.16 1.98C1.808 2.332 1.532 2.744 1.332 3.216C1.14 3.68 1.044 4.192 1.044 4.752C1.044 5.304 1.14 5.816 1.332 6.288C1.532 6.752 1.808 7.164 2.16 7.524C2.52 7.876 2.94 8.152 3.42 8.352C3.9 8.544 4.42 8.64 4.98 8.64ZM5.076 7.524C4.708 7.524 4.356 7.46 4.02 7.332C3.684 7.196 3.384 7.008 3.12 6.768C2.864 6.52 2.656 6.228 2.496 5.892C2.344 5.548 2.268 5.164 2.268 4.74C2.268 4.404 2.324 4.072 2.436 3.744C2.548 3.408 2.716 3.104 2.94 2.832C3.164 2.56 3.448 2.344 3.792 2.184C4.136 2.016 4.54 1.932 5.004 1.932C5.532 1.932 6 2.048 6.408 2.28C6.824 2.504 7.124 2.832 7.308 3.264L6.516 3.516C6.412 3.276 6.268 3.096 6.084 2.976C5.908 2.848 5.724 2.764 5.532 2.724C5.34 2.676 5.164 2.652 5.004 2.652C4.684 2.652 4.404 2.712 4.164 2.832C3.924 2.952 3.724 3.116 3.564 3.324C3.412 3.524 3.296 3.748 3.216 3.996C3.144 4.236 3.108 4.484 3.108 4.74C3.108 5.076 3.164 5.372 3.276 5.628C3.396 5.884 3.548 6.1 3.732 6.276C3.924 6.452 4.132 6.588 4.356 6.684C4.588 6.772 4.812 6.816 5.028 6.816C5.228 6.816 5.432 6.78 5.64 6.708C5.848 6.628 6.04 6.52 6.216 6.384C6.392 6.248 6.52 6.088 6.6 5.904L7.392 6.132C7.312 6.324 7.168 6.528 6.96 6.744C6.752 6.96 6.488 7.144 6.168 7.296C5.848 7.448 5.484 7.524 5.076 7.524ZM10.5124 9C10.5124 8.728 10.5364 8.456 10.5844 8.184C10.6324 7.904 10.7244 7.628 10.8604 7.356C10.9964 7.084 11.1964 6.824 11.4604 6.576C11.7244 6.32 12.0724 6.08 12.5044 5.856C12.7364 5.736 12.9764 5.62 13.2244 5.508C13.4724 5.388 13.7044 5.26 13.9204 5.124C14.1444 4.98 14.3204 4.82 14.4484 4.644C14.5844 4.46 14.6524 4.244 14.6524 3.996C14.6524 3.796 14.5924 3.6 14.4724 3.408C14.3604 3.216 14.1844 3.06 13.9444 2.94C13.7124 2.82 13.4204 2.76 13.0684 2.76C12.8124 2.76 12.5804 2.796 12.3724 2.868C12.1644 2.94 11.9804 3.032 11.8204 3.144C11.6604 3.248 11.5244 3.356 11.4124 3.468C11.3004 3.572 11.2084 3.66 11.1364 3.732L10.6204 3.168C10.6604 3.12 10.7484 3.036 10.8844 2.916C11.0284 2.788 11.2084 2.656 11.4244 2.52C11.6484 2.384 11.9084 2.268 12.2044 2.172C12.5084 2.076 12.8404 2.028 13.2004 2.028C13.6884 2.028 14.1044 2.116 14.4484 2.292C14.8004 2.46 15.0684 2.688 15.2524 2.976C15.4364 3.264 15.5284 3.576 15.5284 3.912C15.5284 4.24 15.4564 4.524 15.3124 4.764C15.1764 4.996 14.9964 5.2 14.7724 5.376C14.5564 5.544 14.3284 5.692 14.0884 5.82C13.8564 5.94 13.6444 6.044 13.4524 6.132C13.0764 6.308 12.7604 6.484 12.5044 6.66C12.2484 6.836 12.0444 7.016 11.8924 7.2C11.7404 7.376 11.6204 7.552 11.5324 7.728C11.4524 7.896 11.3964 8.072 11.3644 8.256H15.6604V9H10.5124ZM22.9262 5.484C22.9262 6.188 22.7942 6.816 22.5302 7.368C22.2742 7.912 21.9182 8.34 21.4622 8.652C21.0062 8.964 20.4902 9.12 19.9142 9.12C19.3382 9.12 18.8222 8.964 18.3662 8.652C17.9182 8.34 17.5622 7.912 17.2982 7.368C17.0342 6.816 16.9022 6.188 16.9022 5.484C16.9022 4.78 17.0342 4.156 17.2982 3.612C17.5622 3.06 17.9182 2.628 18.3662 2.316C18.8222 1.996 19.3382 1.836 19.9142 1.836C20.4902 1.836 21.0062 1.996 21.4622 2.316C21.9182 2.628 22.2742 3.06 22.5302 3.612C22.7942 4.156 22.9262 4.78 22.9262 5.484ZM22.0982 5.484C22.0982 4.916 22.0062 4.416 21.8222 3.984C21.6382 3.552 21.3822 3.216 21.0542 2.976C20.7262 2.728 20.3462 2.604 19.9142 2.604C19.4822 2.604 19.1022 2.728 18.7742 2.976C18.4462 3.216 18.1862 3.552 17.9942 3.984C17.8102 4.416 17.7182 4.916 17.7182 5.484C17.7182 6.052 17.8102 6.552 17.9942 6.984C18.1862 7.416 18.4462 7.752 18.7742 7.992C19.1022 8.232 19.4822 8.352 19.9142 8.352C20.3462 8.352 20.7262 8.232 21.0542 7.992C21.3822 7.744 21.6382 7.408 21.8222 6.984C22.0062 6.552 22.0982 6.052 22.0982 5.484ZM24.1178 9C24.1178 8.728 24.1418 8.456 24.1898 8.184C24.2378 7.904 24.3298 7.628 24.4658 7.356C24.6018 7.084 24.8018 6.824 25.0658 6.576C25.3298 6.32 25.6778 6.08 26.1098 5.856C26.3418 5.736 26.5818 5.62 26.8298 5.508C27.0778 5.388 27.3098 5.26 27.5258 5.124C27.7498 4.98 27.9258 4.82 28.0538 4.644C28.1898 4.46 28.2578 4.244 28.2578 3.996C28.2578 3.796 28.1978 3.6 28.0778 3.408C27.9658 3.216 27.7898 3.06 27.5498 2.94C27.3178 2.82 27.0258 2.76 26.6738 2.76C26.4178 2.76 26.1858 2.796 25.9778 2.868C25.7698 2.94 25.5858 3.032 25.4258 3.144C25.2658 3.248 25.1298 3.356 25.0178 3.468C24.9058 3.572 24.8138 3.66 24.7418 3.732L24.2258 3.168C24.2658 3.12 24.3538 3.036 24.4898 2.916C24.6338 2.788 24.8138 2.656 25.0298 2.52C25.2538 2.384 25.5138 2.268 25.8098 2.172C26.1138 2.076 26.4458 2.028 26.8058 2.028C27.2938 2.028 27.7098 2.116 28.0538 2.292C28.4058 2.46 28.6738 2.688 28.8578 2.976C29.0418 3.264 29.1338 3.576 29.1338 3.912C29.1338 4.24 29.0618 4.524 28.9178 4.764C28.7818 4.996 28.6018 5.2 28.3778 5.376C28.1618 5.544 27.9338 5.692 27.6938 5.82C27.4618 5.94 27.2498 6.044 27.0578 6.132C26.6818 6.308 26.3658 6.484 26.1098 6.66C25.8538 6.836 25.6498 7.016 25.4978 7.2C25.3458 7.376 25.2258 7.552 25.1378 7.728C25.0578 7.896 25.0018 8.072 24.9698 8.256H29.2658V9H24.1178ZM30.3757 9C30.3757 8.728 30.3997 8.456 30.4477 8.184C30.4957 7.904 30.5877 7.628 30.7237 7.356C30.8597 7.084 31.0597 6.824 31.3237 6.576C31.5877 6.32 31.9357 6.08 32.3677 5.856C32.5997 5.736 32.8397 5.62 33.0877 5.508C33.3357 5.388 33.5677 5.26 33.7837 5.124C34.0077 4.98 34.1837 4.82 34.3117 4.644C34.4477 4.46 34.5157 4.244 34.5157 3.996C34.5157 3.796 34.4557 3.6 34.3357 3.408C34.2237 3.216 34.0477 3.06 33.8077 2.94C33.5757 2.82 33.2837 2.76 32.9317 2.76C32.6757 2.76 32.4437 2.796 32.2357 2.868C32.0277 2.94 31.8437 3.032 31.6837 3.144C31.5237 3.248 31.3877 3.356 31.2757 3.468C31.1637 3.572 31.0717 3.66 30.9997 3.732L30.4837 3.168C30.5237 3.12 30.6117 3.036 30.7477 2.916C30.8917 2.788 31.0717 2.656 31.2877 2.52C31.5117 2.384 31.7717 2.268 32.0677 2.172C32.3717 2.076 32.7037 2.028 33.0637 2.028C33.5517 2.028 33.9677 2.116 34.3117 2.292C34.6637 2.46 34.9317 2.688 35.1157 2.976C35.2997 3.264 35.3917 3.576 35.3917 3.912C35.3917 4.24 35.3197 4.524 35.1757 4.764C35.0397 4.996 34.8597 5.2 34.6357 5.376C34.4197 5.544 34.1917 5.692 33.9517 5.82C33.7197 5.94 33.5077 6.044 33.3157 6.132C32.9397 6.308 32.6237 6.484 32.3677 6.66C32.1117 6.836 31.9077 7.016 31.7557 7.2C31.6037 7.376 31.4837 7.552 31.3957 7.728C31.3157 7.896 31.2597 8.072 31.2277 8.256H35.5237V9H30.3757ZM42.4971 0.48H43.2051L46.7451 9H45.8571L44.7531 6.336H40.9251L39.8331 9H38.9331L42.4971 0.48ZM44.5611 5.676L42.8451 1.464L41.1051 5.676H44.5611ZM47.8344 0.24H48.6504V7.584C48.6504 7.896 48.7064 8.1 48.8184 8.196C48.9304 8.292 49.0664 8.34 49.2264 8.34C49.3704 8.34 49.5144 8.324 49.6584 8.292C49.8024 8.26 49.9264 8.228 50.0304 8.196L50.1744 8.856C50.0224 8.92 49.8344 8.972 49.6104 9.012C49.3944 9.052 49.2064 9.072 49.0464 9.072C48.6784 9.072 48.3824 8.964 48.1584 8.748C47.9424 8.532 47.8344 8.236 47.8344 7.86V0.24ZM51.104 0.24H51.92V7.584C51.92 7.896 51.976 8.1 52.088 8.196C52.2 8.292 52.336 8.34 52.496 8.34C52.64 8.34 52.784 8.324 52.928 8.292C53.072 8.26 53.196 8.228 53.3 8.196L53.444 8.856C53.292 8.92 53.104 8.972 52.88 9.012C52.664 9.052 52.476 9.072 52.316 9.072C51.948 9.072 51.652 8.964 51.428 8.748C51.212 8.532 51.104 8.236 51.104 7.86V0.24ZM57.2008 9V0.48H60.8008C61.1688 0.48 61.5048 0.556 61.8088 0.707999C62.1128 0.859999 62.3768 1.068 62.6008 1.332C62.8328 1.588 63.0088 1.876 63.1288 2.196C63.2568 2.508 63.3208 2.828 63.3208 3.156C63.3208 3.564 63.2408 3.948 63.0808 4.308C62.9288 4.668 62.7088 4.972 62.4208 5.22C62.1408 5.468 61.8088 5.632 61.4248 5.712L63.5128 9H62.5648L60.5608 5.856H58.0408V9H57.2008ZM58.0408 5.112H60.8248C61.1608 5.112 61.4528 5.02 61.7008 4.836C61.9488 4.652 62.1408 4.412 62.2768 4.116C62.4128 3.812 62.4808 3.492 62.4808 3.156C62.4808 2.812 62.4008 2.496 62.2408 2.208C62.0888 1.912 61.8808 1.676 61.6168 1.5C61.3608 1.316 61.0728 1.224 60.7528 1.224H58.0408V5.112ZM64.8141 9V2.748H65.6301V9H64.8141ZM64.8141 1.44V0.24H65.6301V1.44H64.8141ZM69.9353 9.084C69.5113 9.084 69.1193 8.996 68.7593 8.82C68.3993 8.644 68.0873 8.408 67.8233 8.112C67.5673 7.808 67.3673 7.464 67.2233 7.08C67.0793 6.696 67.0073 6.3 67.0073 5.892C67.0073 5.452 67.0753 5.04 67.2113 4.656C67.3553 4.264 67.5553 3.916 67.8113 3.612C68.0753 3.308 68.3833 3.072 68.7353 2.904C69.0873 2.728 69.4793 2.64 69.9113 2.64C70.4473 2.64 70.9113 2.776 71.3033 3.048C71.7033 3.32 72.0393 3.656 72.3113 4.056V2.748H73.0433V9.024C73.0433 9.6 72.9033 10.084 72.6233 10.476C72.3513 10.876 71.9793 11.176 71.5073 11.376C71.0433 11.576 70.5353 11.676 69.9833 11.676C69.2713 11.676 68.6953 11.548 68.2553 11.292C67.8153 11.036 67.4553 10.692 67.1753 10.26L67.6793 9.864C67.9273 10.256 68.2553 10.548 68.6633 10.74C69.0793 10.932 69.5193 11.028 69.9833 11.028C70.3913 11.028 70.7633 10.952 71.0993 10.8C71.4433 10.656 71.7153 10.436 71.9153 10.14C72.1233 9.844 72.2273 9.472 72.2273 9.024V7.788C71.9873 8.18 71.6593 8.496 71.2433 8.736C70.8273 8.968 70.3913 9.084 69.9353 9.084ZM70.1633 8.4C70.4113 8.4 70.6473 8.356 70.8713 8.268C71.1033 8.18 71.3153 8.064 71.5073 7.92C71.6993 7.768 71.8593 7.6 71.9873 7.416C72.1153 7.232 72.1953 7.044 72.2273 6.852V4.92C72.1073 4.616 71.9353 4.348 71.7113 4.116C71.4873 3.876 71.2313 3.692 70.9433 3.564C70.6633 3.428 70.3713 3.36 70.0673 3.36C69.7153 3.36 69.3993 3.436 69.1193 3.588C68.8473 3.732 68.6153 3.928 68.4233 4.176C68.2393 4.416 68.0953 4.688 67.9913 4.992C67.8873 5.296 67.8353 5.6 67.8353 5.904C67.8353 6.24 67.8953 6.56 68.0153 6.864C68.1353 7.16 68.2993 7.428 68.5073 7.668C68.7233 7.9 68.9713 8.08 69.2513 8.208C69.5393 8.336 69.8433 8.4 70.1633 8.4ZM80.1013 9H79.2853V5.508C79.2853 4.804 79.1613 4.276 78.9133 3.924C78.6653 3.564 78.3093 3.384 77.8453 3.384C77.5413 3.384 77.2373 3.464 76.9333 3.624C76.6373 3.776 76.3733 3.988 76.1413 4.26C75.9173 4.524 75.7573 4.828 75.6613 5.172V9H74.8453V0.24H75.6613V4.164C75.9093 3.7 76.2533 3.332 76.6933 3.06C77.1413 2.78 77.6173 2.64 78.1213 2.64C78.4813 2.64 78.7853 2.704 79.0333 2.832C79.2893 2.96 79.4933 3.148 79.6453 3.396C79.8053 3.636 79.9213 3.92 79.9933 4.248C80.0653 4.568 80.1013 4.932 80.1013 5.34V9ZM84.7828 8.7C84.7188 8.724 84.6188 8.768 84.4828 8.832C84.3468 8.896 84.1828 8.952 83.9908 9C83.7988 9.048 83.5908 9.072 83.3668 9.072C83.1348 9.072 82.9148 9.028 82.7068 8.94C82.5068 8.852 82.3468 8.72 82.2268 8.544C82.1068 8.36 82.0468 8.136 82.0468 7.872V3.396H81.1828V2.748H82.0468V0.636H82.8628V2.748H84.3028V3.396H82.8628V7.644C82.8788 7.868 82.9588 8.036 83.1028 8.148C83.2548 8.26 83.4268 8.316 83.6188 8.316C83.8428 8.316 84.0468 8.28 84.2308 8.208C84.4148 8.128 84.5268 8.072 84.5668 8.04L84.7828 8.7ZM89.0289 9V0.48H92.6289C92.9969 0.48 93.3329 0.556 93.6369 0.707999C93.9409 0.859999 94.2049 1.068 94.4289 1.332C94.6609 1.588 94.8369 1.876 94.9569 2.196C95.0849 2.508 95.1489 2.828 95.1489 3.156C95.1489 3.564 95.0689 3.948 94.9089 4.308C94.7569 4.668 94.5369 4.972 94.2489 5.22C93.9689 5.468 93.6369 5.632 93.2529 5.712L95.3409 9H94.3929L92.3889 5.856H89.8689V9H89.0289ZM89.8689 5.112H92.6529C92.9889 5.112 93.2809 5.02 93.5289 4.836C93.7769 4.652 93.9689 4.412 94.1049 4.116C94.2409 3.812 94.3089 3.492 94.3089 3.156C94.3089 2.812 94.2289 2.496 94.0689 2.208C93.9169 1.912 93.7089 1.676 93.4449 1.5C93.1889 1.316 92.9009 1.224 92.5809 1.224H89.8689V5.112ZM99.2133 9.12C98.7653 9.12 98.3493 9.036 97.9653 8.868C97.5813 8.692 97.2493 8.456 96.9693 8.16C96.6893 7.856 96.4693 7.508 96.3093 7.116C96.1573 6.724 96.0813 6.304 96.0813 5.856C96.0813 5.272 96.2133 4.736 96.4773 4.248C96.7493 3.76 97.1213 3.372 97.5933 3.084C98.0653 2.788 98.6013 2.64 99.2013 2.64C99.8173 2.64 100.353 2.788 100.809 3.084C101.273 3.38 101.637 3.772 101.901 4.26C102.165 4.74 102.297 5.268 102.297 5.844C102.297 5.908 102.297 5.972 102.297 6.036C102.297 6.092 102.293 6.136 102.285 6.168H96.9333C96.9733 6.616 97.0973 7.016 97.3053 7.368C97.5213 7.712 97.7973 7.988 98.1333 8.196C98.4773 8.396 98.8493 8.496 99.2493 8.496C99.6573 8.496 100.041 8.392 100.401 8.184C100.769 7.976 101.025 7.704 101.169 7.368L101.877 7.56C101.749 7.856 101.553 8.124 101.289 8.364C101.025 8.604 100.713 8.792 100.353 8.928C100.001 9.056 99.6213 9.12 99.2133 9.12ZM96.9093 5.58H101.529C101.497 5.124 101.373 4.724 101.157 4.38C100.949 4.036 100.673 3.768 100.329 3.576C99.9933 3.376 99.6213 3.276 99.2133 3.276C98.8053 3.276 98.4333 3.376 98.0973 3.576C97.7613 3.768 97.4853 4.04 97.2693 4.392C97.0613 4.736 96.9413 5.132 96.9093 5.58ZM105.608 9.12C105.096 9.12 104.62 9.036 104.18 8.868C103.74 8.7 103.36 8.444 103.04 8.1L103.376 7.524C103.728 7.852 104.08 8.092 104.432 8.244C104.792 8.388 105.172 8.46 105.572 8.46C106.06 8.46 106.456 8.364 106.76 8.172C107.064 7.972 107.216 7.688 107.216 7.32C107.216 7.072 107.14 6.884 106.988 6.756C106.844 6.62 106.632 6.512 106.352 6.432C106.08 6.344 105.752 6.252 105.368 6.156C104.936 6.036 104.572 5.912 104.276 5.784C103.988 5.648 103.768 5.48 103.616 5.28C103.472 5.072 103.4 4.804 103.4 4.476C103.4 4.068 103.5 3.732 103.7 3.468C103.908 3.196 104.188 2.992 104.54 2.856C104.9 2.712 105.3 2.64 105.74 2.64C106.22 2.64 106.644 2.716 107.012 2.868C107.38 3.02 107.68 3.232 107.912 3.504L107.516 4.056C107.292 3.8 107.024 3.612 106.712 3.492C106.408 3.364 106.068 3.3 105.692 3.3C105.436 3.3 105.192 3.336 104.96 3.408C104.728 3.472 104.536 3.584 104.384 3.744C104.24 3.896 104.168 4.108 104.168 4.38C104.168 4.604 104.224 4.78 104.336 4.908C104.448 5.028 104.616 5.132 104.84 5.22C105.064 5.3 105.34 5.388 105.668 5.484C106.14 5.612 106.552 5.744 106.904 5.88C107.256 6.008 107.528 6.176 107.72 6.384C107.912 6.592 108.008 6.884 108.008 7.26C108.008 7.844 107.788 8.3 107.348 8.628C106.908 8.956 106.328 9.12 105.608 9.12ZM112.057 9.12C111.609 9.12 111.193 9.036 110.809 8.868C110.425 8.692 110.093 8.456 109.813 8.16C109.533 7.856 109.313 7.508 109.153 7.116C109.001 6.724 108.925 6.304 108.925 5.856C108.925 5.272 109.057 4.736 109.321 4.248C109.593 3.76 109.965 3.372 110.437 3.084C110.909 2.788 111.445 2.64 112.045 2.64C112.661 2.64 113.197 2.788 113.653 3.084C114.117 3.38 114.481 3.772 114.745 4.26C115.009 4.74 115.141 5.268 115.141 5.844C115.141 5.908 115.141 5.972 115.141 6.036C115.141 6.092 115.137 6.136 115.129 6.168H109.777C109.817 6.616 109.941 7.016 110.149 7.368C110.365 7.712 110.641 7.988 110.977 8.196C111.321 8.396 111.693 8.496 112.093 8.496C112.501 8.496 112.885 8.392 113.245 8.184C113.613 7.976 113.869 7.704 114.013 7.368L114.721 7.56C114.593 7.856 114.397 8.124 114.133 8.364C113.869 8.604 113.557 8.792 113.197 8.928C112.845 9.056 112.465 9.12 112.057 9.12ZM109.753 5.58H114.373C114.341 5.124 114.217 4.724 114.001 4.38C113.793 4.036 113.517 3.768 113.173 3.576C112.837 3.376 112.465 3.276 112.057 3.276C111.649 3.276 111.277 3.376 110.941 3.576C110.605 3.768 110.329 4.04 110.113 4.392C109.905 4.736 109.785 5.132 109.753 5.58ZM119.52 3.468C118.976 3.484 118.496 3.636 118.08 3.924C117.672 4.212 117.384 4.608 117.216 5.112V9H116.4V2.748H117.168V4.248C117.384 3.808 117.668 3.452 118.02 3.18C118.38 2.908 118.76 2.756 119.16 2.724C119.24 2.716 119.308 2.712 119.364 2.712C119.428 2.712 119.48 2.716 119.52 2.724V3.468ZM122.467 9L119.935 2.748H120.787L122.923 8.184L125.071 2.748H125.875L123.343 9H122.467ZM129.495 9.12C129.047 9.12 128.631 9.036 128.247 8.868C127.863 8.692 127.531 8.456 127.251 8.16C126.971 7.856 126.751 7.508 126.591 7.116C126.439 6.724 126.363 6.304 126.363 5.856C126.363 5.272 126.495 4.736 126.759 4.248C127.031 3.76 127.403 3.372 127.875 3.084C128.347 2.788 128.883 2.64 129.483 2.64C130.099 2.64 130.635 2.788 131.091 3.084C131.555 3.38 131.919 3.772 132.183 4.26C132.447 4.74 132.579 5.268 132.579 5.844C132.579 5.908 132.579 5.972 132.579 6.036C132.579 6.092 132.575 6.136 132.567 6.168H127.215C127.255 6.616 127.379 7.016 127.587 7.368C127.803 7.712 128.079 7.988 128.415 8.196C128.759 8.396 129.131 8.496 129.531 8.496C129.939 8.496 130.323 8.392 130.683 8.184C131.051 7.976 131.307 7.704 131.451 7.368L132.159 7.56C132.031 7.856 131.835 8.124 131.571 8.364C131.307 8.604 130.995 8.792 130.635 8.928C130.283 9.056 129.903 9.12 129.495 9.12ZM127.191 5.58H131.811C131.779 5.124 131.655 4.724 131.439 4.38C131.231 4.036 130.955 3.768 130.611 3.576C130.275 3.376 129.903 3.276 129.495 3.276C129.087 3.276 128.715 3.376 128.379 3.576C128.043 3.768 127.767 4.04 127.551 4.392C127.343 4.736 127.223 5.132 127.191 5.58ZM133.418 5.892C133.418 5.3 133.538 4.76 133.778 4.272C134.026 3.776 134.366 3.38 134.798 3.084C135.23 2.788 135.722 2.64 136.274 2.64C136.794 2.64 137.258 2.78 137.666 3.06C138.082 3.332 138.406 3.664 138.638 4.056V0.24H139.454V8.016C139.454 8.128 139.478 8.212 139.526 8.268C139.574 8.316 139.646 8.344 139.742 8.352V9C139.582 9.024 139.458 9.032 139.37 9.024C139.202 9.016 139.054 8.948 138.926 8.82C138.798 8.692 138.734 8.552 138.734 8.4V7.788C138.486 8.196 138.15 8.52 137.726 8.76C137.302 9 136.862 9.12 136.406 9.12C135.974 9.12 135.574 9.032 135.206 8.856C134.846 8.68 134.53 8.44 134.258 8.136C133.994 7.832 133.786 7.488 133.634 7.104C133.49 6.712 133.418 6.308 133.418 5.892ZM138.638 6.852V4.92C138.534 4.632 138.366 4.372 138.134 4.14C137.902 3.9 137.638 3.712 137.342 3.576C137.054 3.432 136.766 3.36 136.478 3.36C136.142 3.36 135.838 3.432 135.566 3.576C135.294 3.712 135.058 3.9 134.858 4.14C134.666 4.38 134.518 4.652 134.414 4.956C134.31 5.26 134.258 5.572 134.258 5.892C134.258 6.228 134.314 6.548 134.426 6.852C134.546 7.156 134.714 7.428 134.93 7.668C135.146 7.9 135.394 8.08 135.674 8.208C135.954 8.336 136.258 8.4 136.586 8.4C136.794 8.4 137.01 8.36 137.234 8.28C137.458 8.2 137.67 8.092 137.87 7.956C138.078 7.812 138.25 7.644 138.386 7.452C138.522 7.26 138.606 7.06 138.638 6.852ZM141.182 9V7.824H141.89V9H141.182ZM146.802 9V0.48H149.694C150.598 0.48 151.35 0.671999 151.95 1.056C152.558 1.432 153.014 1.944 153.318 2.592C153.622 3.232 153.774 3.944 153.774 4.728C153.774 5.592 153.606 6.344 153.27 6.984C152.942 7.624 152.47 8.12 151.854 8.472C151.246 8.824 150.526 9 149.694 9H146.802ZM152.934 4.728C152.934 4.048 152.806 3.444 152.55 2.916C152.302 2.388 151.938 1.976 151.458 1.68C150.978 1.376 150.39 1.224 149.694 1.224H147.642V8.256H149.694C150.398 8.256 150.99 8.1 151.47 7.788C151.95 7.476 152.314 7.056 152.562 6.528C152.81 5.992 152.934 5.392 152.934 4.728ZM157.913 9.12C157.465 9.12 157.049 9.036 156.665 8.868C156.281 8.692 155.949 8.456 155.669 8.16C155.389 7.856 155.169 7.508 155.009 7.116C154.857 6.724 154.781 6.304 154.781 5.856C154.781 5.272 154.913 4.736 155.177 4.248C155.449 3.76 155.821 3.372 156.293 3.084C156.765 2.788 157.301 2.64 157.901 2.64C158.517 2.64 159.053 2.788 159.509 3.084C159.973 3.38 160.337 3.772 160.601 4.26C160.865 4.74 160.997 5.268 160.997 5.844C160.997 5.908 160.997 5.972 160.997 6.036C160.997 6.092 160.993 6.136 160.985 6.168H155.633C155.673 6.616 155.797 7.016 156.005 7.368C156.221 7.712 156.497 7.988 156.833 8.196C157.177 8.396 157.549 8.496 157.949 8.496C158.357 8.496 158.741 8.392 159.101 8.184C159.469 7.976 159.725 7.704 159.869 7.368L160.577 7.56C160.449 7.856 160.253 8.124 159.989 8.364C159.725 8.604 159.413 8.792 159.053 8.928C158.701 9.056 158.321 9.12 157.913 9.12ZM155.609 5.58H160.229C160.197 5.124 160.073 4.724 159.857 4.38C159.649 4.036 159.373 3.768 159.029 3.576C158.693 3.376 158.321 3.276 157.913 3.276C157.505 3.276 157.133 3.376 156.797 3.576C156.461 3.768 156.185 4.04 155.969 4.392C155.761 4.736 155.641 5.132 155.609 5.58ZM163.951 9L161.419 2.748H162.271L164.407 8.184L166.555 2.748H167.359L164.827 9H163.951ZM170.979 9.12C170.531 9.12 170.115 9.036 169.731 8.868C169.347 8.692 169.015 8.456 168.735 8.16C168.455 7.856 168.235 7.508 168.075 7.116C167.923 6.724 167.847 6.304 167.847 5.856C167.847 5.272 167.979 4.736 168.243 4.248C168.515 3.76 168.887 3.372 169.359 3.084C169.831 2.788 170.367 2.64 170.967 2.64C171.583 2.64 172.119 2.788 172.575 3.084C173.039 3.38 173.403 3.772 173.667 4.26C173.931 4.74 174.063 5.268 174.063 5.844C174.063 5.908 174.063 5.972 174.063 6.036C174.063 6.092 174.059 6.136 174.051 6.168H168.699C168.739 6.616 168.863 7.016 169.071 7.368C169.287 7.712 169.563 7.988 169.899 8.196C170.243 8.396 170.615 8.496 171.015 8.496C171.423 8.496 171.807 8.392 172.167 8.184C172.535 7.976 172.791 7.704 172.935 7.368L173.643 7.56C173.515 7.856 173.319 8.124 173.055 8.364C172.791 8.604 172.479 8.792 172.119 8.928C171.767 9.056 171.387 9.12 170.979 9.12ZM168.675 5.58H173.295C173.263 5.124 173.139 4.724 172.923 4.38C172.715 4.036 172.439 3.768 172.095 3.576C171.759 3.376 171.387 3.276 170.979 3.276C170.571 3.276 170.199 3.376 169.863 3.576C169.527 3.768 169.251 4.04 169.035 4.392C168.827 4.736 168.707 5.132 168.675 5.58ZM175.358 0.24H176.174V7.584C176.174 7.896 176.23 8.1 176.342 8.196C176.454 8.292 176.59 8.34 176.75 8.34C176.894 8.34 177.038 8.324 177.182 8.292C177.326 8.26 177.45 8.228 177.554 8.196L177.698 8.856C177.546 8.92 177.358 8.972 177.134 9.012C176.918 9.052 176.73 9.072 176.57 9.072C176.202 9.072 175.906 8.964 175.682 8.748C175.466 8.532 175.358 8.236 175.358 7.86V0.24ZM181.255 9.12C180.807 9.12 180.391 9.036 180.007 8.868C179.631 8.692 179.303 8.456 179.023 8.16C178.751 7.856 178.539 7.512 178.387 7.128C178.235 6.736 178.159 6.324 178.159 5.892C178.159 5.444 178.235 5.028 178.387 4.644C178.539 4.252 178.755 3.908 179.035 3.612C179.315 3.308 179.643 3.072 180.019 2.904C180.403 2.728 180.819 2.64 181.267 2.64C181.715 2.64 182.127 2.728 182.503 2.904C182.879 3.072 183.207 3.308 183.487 3.612C183.767 3.908 183.983 4.252 184.135 4.644C184.287 5.028 184.363 5.444 184.363 5.892C184.363 6.324 184.287 6.736 184.135 7.128C183.983 7.512 183.767 7.856 183.487 8.16C183.215 8.456 182.887 8.692 182.503 8.868C182.127 9.036 181.711 9.12 181.255 9.12ZM178.987 5.904C178.987 6.368 179.087 6.792 179.287 7.176C179.495 7.552 179.771 7.852 180.115 8.076C180.459 8.292 180.839 8.4 181.255 8.4C181.671 8.4 182.051 8.288 182.395 8.064C182.739 7.84 183.015 7.536 183.223 7.152C183.431 6.76 183.535 6.336 183.535 5.88C183.535 5.416 183.431 4.992 183.223 4.608C183.015 4.224 182.739 3.92 182.395 3.696C182.051 3.472 181.671 3.36 181.255 3.36C180.839 3.36 180.459 3.476 180.115 3.708C179.779 3.94 179.507 4.248 179.299 4.632C179.091 5.008 178.987 5.432 178.987 5.904ZM188.92 9.12C188.4 9.12 187.932 8.984 187.516 8.712C187.108 8.44 186.784 8.104 186.544 7.704V11.556H185.728V2.748H186.46V3.96C186.708 3.568 187.04 3.252 187.456 3.012C187.872 2.764 188.316 2.64 188.788 2.64C189.22 2.64 189.616 2.732 189.976 2.916C190.336 3.092 190.648 3.332 190.912 3.636C191.176 3.94 191.38 4.288 191.524 4.68C191.676 5.064 191.752 5.464 191.752 5.88C191.752 6.464 191.632 7.004 191.392 7.5C191.16 7.988 190.832 8.38 190.408 8.676C189.984 8.972 189.488 9.12 188.92 9.12ZM188.692 8.4C189.036 8.4 189.344 8.332 189.616 8.196C189.888 8.052 190.12 7.86 190.312 7.62C190.512 7.38 190.664 7.112 190.768 6.816C190.872 6.512 190.924 6.2 190.924 5.88C190.924 5.544 190.864 5.224 190.744 4.92C190.632 4.616 190.468 4.348 190.252 4.116C190.036 3.884 189.788 3.7 189.508 3.564C189.228 3.428 188.924 3.36 188.596 3.36C188.388 3.36 188.172 3.4 187.948 3.48C187.724 3.56 187.508 3.676 187.3 3.828C187.1 3.972 186.932 4.136 186.796 4.32C186.66 4.504 186.576 4.7 186.544 4.908V6.828C186.672 7.124 186.844 7.392 187.06 7.632C187.276 7.864 187.524 8.052 187.804 8.196C188.092 8.332 188.388 8.4 188.692 8.4ZM195.834 9.12C195.386 9.12 194.97 9.036 194.586 8.868C194.202 8.692 193.87 8.456 193.59 8.16C193.31 7.856 193.09 7.508 192.93 7.116C192.778 6.724 192.702 6.304 192.702 5.856C192.702 5.272 192.834 4.736 193.098 4.248C193.37 3.76 193.742 3.372 194.214 3.084C194.686 2.788 195.222 2.64 195.822 2.64C196.438 2.64 196.974 2.788 197.43 3.084C197.894 3.38 198.258 3.772 198.522 4.26C198.786 4.74 198.918 5.268 198.918 5.844C198.918 5.908 198.918 5.972 198.918 6.036C198.918 6.092 198.914 6.136 198.906 6.168H193.554C193.594 6.616 193.718 7.016 193.926 7.368C194.142 7.712 194.418 7.988 194.754 8.196C195.098 8.396 195.47 8.496 195.87 8.496C196.278 8.496 196.662 8.392 197.022 8.184C197.39 7.976 197.646 7.704 197.79 7.368L198.498 7.56C198.37 7.856 198.174 8.124 197.91 8.364C197.646 8.604 197.334 8.792 196.974 8.928C196.622 9.056 196.242 9.12 195.834 9.12ZM193.53 5.58H198.15C198.118 5.124 197.994 4.724 197.778 4.38C197.57 4.036 197.294 3.768 196.95 3.576C196.614 3.376 196.242 3.276 195.834 3.276C195.426 3.276 195.054 3.376 194.718 3.576C194.382 3.768 194.106 4.04 193.89 4.392C193.682 4.736 193.562 5.132 193.53 5.58ZM199.757 5.892C199.757 5.3 199.877 4.76 200.117 4.272C200.365 3.776 200.705 3.38 201.137 3.084C201.569 2.788 202.061 2.64 202.613 2.64C203.133 2.64 203.597 2.78 204.005 3.06C204.421 3.332 204.745 3.664 204.977 4.056V0.24H205.793V8.016C205.793 8.128 205.817 8.212 205.865 8.268C205.913 8.316 205.985 8.344 206.081 8.352V9C205.921 9.024 205.797 9.032 205.709 9.024C205.541 9.016 205.393 8.948 205.265 8.82C205.137 8.692 205.073 8.552 205.073 8.4V7.788C204.825 8.196 204.489 8.52 204.065 8.76C203.641 9 203.201 9.12 202.745 9.12C202.313 9.12 201.913 9.032 201.545 8.856C201.185 8.68 200.869 8.44 200.597 8.136C200.333 7.832 200.125 7.488 199.973 7.104C199.829 6.712 199.757 6.308 199.757 5.892ZM204.977 6.852V4.92C204.873 4.632 204.705 4.372 204.473 4.14C204.241 3.9 203.977 3.712 203.681 3.576C203.393 3.432 203.105 3.36 202.817 3.36C202.481 3.36 202.177 3.432 201.905 3.576C201.633 3.712 201.397 3.9 201.197 4.14C201.005 4.38 200.857 4.652 200.753 4.956C200.649 5.26 200.597 5.572 200.597 5.892C200.597 6.228 200.653 6.548 200.765 6.852C200.885 7.156 201.053 7.428 201.269 7.668C201.485 7.9 201.733 8.08 202.013 8.208C202.293 8.336 202.597 8.4 202.925 8.4C203.133 8.4 203.349 8.36 203.573 8.28C203.797 8.2 204.009 8.092 204.209 7.956C204.417 7.812 204.589 7.644 204.725 7.452C204.861 7.26 204.945 7.06 204.977 6.852ZM213.761 9.12C213.273 9.12 212.821 8.996 212.405 8.748C211.989 8.492 211.665 8.172 211.433 7.788V9H210.701V0.24H211.517V4.056C211.797 3.632 212.133 3.292 212.525 3.036C212.917 2.772 213.373 2.64 213.893 2.64C214.333 2.64 214.725 2.732 215.069 2.916C215.421 3.1 215.721 3.348 215.969 3.66C216.217 3.964 216.405 4.312 216.533 4.704C216.661 5.088 216.725 5.484 216.725 5.892C216.725 6.332 216.649 6.744 216.497 7.128C216.353 7.512 216.145 7.856 215.873 8.16C215.601 8.456 215.285 8.692 214.925 8.868C214.573 9.036 214.185 9.12 213.761 9.12ZM213.569 8.4C213.905 8.4 214.217 8.332 214.505 8.196C214.793 8.06 215.041 7.872 215.249 7.632C215.457 7.392 215.617 7.124 215.729 6.828C215.841 6.524 215.897 6.212 215.897 5.892C215.897 5.452 215.801 5.04 215.609 4.656C215.425 4.264 215.165 3.952 214.829 3.72C214.501 3.48 214.113 3.36 213.665 3.36C213.345 3.36 213.045 3.432 212.765 3.576C212.493 3.72 212.249 3.912 212.033 4.152C211.825 4.384 211.653 4.64 211.517 4.92V6.864C211.549 7.08 211.633 7.284 211.769 7.476C211.905 7.66 212.073 7.82 212.273 7.956C212.481 8.092 212.697 8.2 212.921 8.28C213.145 8.36 213.361 8.4 213.569 8.4ZM218.256 10.92C218.368 10.928 218.476 10.932 218.58 10.932C218.684 10.94 218.76 10.936 218.808 10.92C218.904 10.904 218.996 10.848 219.084 10.752C219.172 10.656 219.276 10.472 219.396 10.2C219.516 9.928 219.684 9.528 219.9 9L217.176 2.748H218.04L220.332 8.16L222.444 2.748H223.26L220.02 10.812C219.964 10.964 219.88 11.104 219.768 11.232C219.656 11.368 219.516 11.472 219.348 11.544C219.188 11.624 218.988 11.668 218.748 11.676C218.676 11.684 218.6 11.684 218.52 11.676C218.448 11.676 218.36 11.668 218.256 11.652V10.92ZM230.081 0.539999H230.873L232.073 3.564L233.285 0.539999H234.089L232.601 4.176L234.233 8.028L237.317 0.48H238.229L234.617 9H233.873L232.085 4.788L230.285 9H229.553L225.953 0.48H226.853L229.949 8.028L231.569 4.176L230.081 0.539999ZM241.151 9.12C240.703 9.12 240.287 9.036 239.903 8.868C239.519 8.692 239.187 8.456 238.907 8.16C238.627 7.856 238.407 7.508 238.247 7.116C238.095 6.724 238.019 6.304 238.019 5.856C238.019 5.272 238.151 4.736 238.415 4.248C238.687 3.76 239.059 3.372 239.531 3.084C240.003 2.788 240.539 2.64 241.139 2.64C241.755 2.64 242.291 2.788 242.747 3.084C243.211 3.38 243.575 3.772 243.839 4.26C244.103 4.74 244.235 5.268 244.235 5.844C244.235 5.908 244.235 5.972 244.235 6.036C244.235 6.092 244.231 6.136 244.223 6.168H238.871C238.911 6.616 239.035 7.016 239.243 7.368C239.459 7.712 239.735 7.988 240.071 8.196C240.415 8.396 240.787 8.496 241.187 8.496C241.595 8.496 241.979 8.392 242.339 8.184C242.707 7.976 242.963 7.704 243.107 7.368L243.815 7.56C243.687 7.856 243.491 8.124 243.227 8.364C242.963 8.604 242.651 8.792 242.291 8.928C241.939 9.056 241.559 9.12 241.151 9.12ZM238.847 5.58H243.467C243.435 5.124 243.311 4.724 243.095 4.38C242.887 4.036 242.611 3.768 242.267 3.576C241.931 3.376 241.559 3.276 241.151 3.276C240.743 3.276 240.371 3.376 240.035 3.576C239.699 3.768 239.423 4.04 239.207 4.392C238.999 4.736 238.879 5.132 238.847 5.58ZM248.554 9.12C248.066 9.12 247.614 8.996 247.198 8.748C246.782 8.492 246.458 8.172 246.226 7.788V9H245.494V0.24H246.31V4.056C246.59 3.632 246.926 3.292 247.318 3.036C247.71 2.772 248.166 2.64 248.686 2.64C249.126 2.64 249.518 2.732 249.862 2.916C250.214 3.1 250.514 3.348 250.762 3.66C251.01 3.964 251.198 4.312 251.326 4.704C251.454 5.088 251.518 5.484 251.518 5.892C251.518 6.332 251.442 6.744 251.29 7.128C251.146 7.512 250.938 7.856 250.666 8.16C250.394 8.456 250.078 8.692 249.718 8.868C249.366 9.036 248.978 9.12 248.554 9.12ZM248.362 8.4C248.698 8.4 249.01 8.332 249.298 8.196C249.586 8.06 249.834 7.872 250.042 7.632C250.25 7.392 250.41 7.124 250.522 6.828C250.634 6.524 250.69 6.212 250.69 5.892C250.69 5.452 250.594 5.04 250.402 4.656C250.218 4.264 249.958 3.952 249.622 3.72C249.294 3.48 248.906 3.36 248.458 3.36C248.138 3.36 247.838 3.432 247.558 3.576C247.286 3.72 247.042 3.912 246.826 4.152C246.618 4.384 246.446 4.64 246.31 4.92V6.864C246.342 7.08 246.426 7.284 246.562 7.476C246.698 7.66 246.866 7.82 247.066 7.956C247.274 8.092 247.49 8.2 247.714 8.28C247.938 8.36 248.154 8.4 248.362 8.4ZM255.612 9.12C255.156 9.12 254.736 9.036 254.352 8.868C253.976 8.692 253.644 8.452 253.356 8.148C253.076 7.844 252.856 7.496 252.696 7.104C252.544 6.712 252.468 6.296 252.468 5.856C252.468 5.264 252.6 4.724 252.864 4.236C253.128 3.748 253.496 3.36 253.968 3.072C254.44 2.784 254.984 2.64 255.6 2.64C256.184 2.64 256.7 2.776 257.148 3.048C257.596 3.312 257.928 3.672 258.144 4.128L257.352 4.38C257.176 4.06 256.928 3.812 256.608 3.636C256.296 3.452 255.948 3.36 255.564 3.36C255.148 3.36 254.768 3.468 254.424 3.684C254.08 3.9 253.804 4.196 253.596 4.572C253.396 4.948 253.296 5.376 253.296 5.856C253.296 6.328 253.4 6.756 253.608 7.14C253.816 7.524 254.092 7.832 254.436 8.064C254.78 8.288 255.16 8.4 255.576 8.4C255.848 8.4 256.108 8.352 256.356 8.256C256.612 8.16 256.832 8.032 257.016 7.872C257.208 7.704 257.336 7.524 257.4 7.332L258.204 7.572C258.092 7.868 257.904 8.136 257.64 8.376C257.384 8.608 257.08 8.792 256.728 8.928C256.384 9.056 256.012 9.12 255.612 9.12ZM262.091 9.12C261.643 9.12 261.227 9.036 260.843 8.868C260.467 8.692 260.139 8.456 259.859 8.16C259.587 7.856 259.375 7.512 259.223 7.128C259.071 6.736 258.995 6.324 258.995 5.892C258.995 5.444 259.071 5.028 259.223 4.644C259.375 4.252 259.591 3.908 259.871 3.612C260.151 3.308 260.479 3.072 260.855 2.904C261.239 2.728 261.655 2.64 262.103 2.64C262.551 2.64 262.963 2.728 263.339 2.904C263.715 3.072 264.043 3.308 264.323 3.612C264.603 3.908 264.819 4.252 264.971 4.644C265.123 5.028 265.199 5.444 265.199 5.892C265.199 6.324 265.123 6.736 264.971 7.128C264.819 7.512 264.603 7.856 264.323 8.16C264.051 8.456 263.723 8.692 263.339 8.868C262.963 9.036 262.547 9.12 262.091 9.12ZM259.823 5.904C259.823 6.368 259.923 6.792 260.123 7.176C260.331 7.552 260.607 7.852 260.951 8.076C261.295 8.292 261.675 8.4 262.091 8.4C262.507 8.4 262.887 8.288 263.231 8.064C263.575 7.84 263.851 7.536 264.059 7.152C264.267 6.76 264.371 6.336 264.371 5.88C264.371 5.416 264.267 4.992 264.059 4.608C263.851 4.224 263.575 3.92 263.231 3.696C262.887 3.472 262.507 3.36 262.091 3.36C261.675 3.36 261.295 3.476 260.951 3.708C260.615 3.94 260.343 4.248 260.135 4.632C259.927 5.008 259.823 5.432 259.823 5.904ZM266.144 5.892C266.144 5.3 266.264 4.76 266.504 4.272C266.752 3.776 267.092 3.38 267.524 3.084C267.956 2.788 268.448 2.64 269 2.64C269.52 2.64 269.984 2.78 270.392 3.06C270.808 3.332 271.132 3.664 271.364 4.056V0.24H272.18V8.016C272.18 8.128 272.204 8.212 272.252 8.268C272.3 8.316 272.372 8.344 272.468 8.352V9C272.308 9.024 272.184 9.032 272.096 9.024C271.928 9.016 271.78 8.948 271.652 8.82C271.524 8.692 271.46 8.552 271.46 8.4V7.788C271.212 8.196 270.876 8.52 270.452 8.76C270.028 9 269.588 9.12 269.132 9.12C268.7 9.12 268.3 9.032 267.932 8.856C267.572 8.68 267.256 8.44 266.984 8.136C266.72 7.832 266.512 7.488 266.36 7.104C266.216 6.712 266.144 6.308 266.144 5.892ZM271.364 6.852V4.92C271.26 4.632 271.092 4.372 270.86 4.14C270.628 3.9 270.364 3.712 270.068 3.576C269.78 3.432 269.492 3.36 269.204 3.36C268.868 3.36 268.564 3.432 268.292 3.576C268.02 3.712 267.784 3.9 267.584 4.14C267.392 4.38 267.244 4.652 267.14 4.956C267.036 5.26 266.984 5.572 266.984 5.892C266.984 6.228 267.04 6.548 267.152 6.852C267.272 7.156 267.44 7.428 267.656 7.668C267.872 7.9 268.12 8.08 268.4 8.208C268.68 8.336 268.984 8.4 269.312 8.4C269.52 8.4 269.736 8.36 269.96 8.28C270.184 8.2 270.396 8.092 270.596 7.956C270.804 7.812 270.976 7.644 271.112 7.452C271.248 7.26 271.332 7.06 271.364 6.852ZM276.729 9.12C276.281 9.12 275.865 9.036 275.481 8.868C275.097 8.692 274.765 8.456 274.485 8.16C274.205 7.856 273.985 7.508 273.825 7.116C273.673 6.724 273.597 6.304 273.597 5.856C273.597 5.272 273.729 4.736 273.993 4.248C274.265 3.76 274.637 3.372 275.109 3.084C275.581 2.788 276.117 2.64 276.717 2.64C277.333 2.64 277.869 2.788 278.325 3.084C278.789 3.38 279.153 3.772 279.417 4.26C279.681 4.74 279.813 5.268 279.813 5.844C279.813 5.908 279.813 5.972 279.813 6.036C279.813 6.092 279.809 6.136 279.801 6.168H274.449C274.489 6.616 274.613 7.016 274.821 7.368C275.037 7.712 275.313 7.988 275.649 8.196C275.993 8.396 276.365 8.496 276.765 8.496C277.173 8.496 277.557 8.392 277.917 8.184C278.285 7.976 278.541 7.704 278.685 7.368L279.393 7.56C279.265 7.856 279.069 8.124 278.805 8.364C278.541 8.604 278.229 8.792 277.869 8.928C277.517 9.056 277.137 9.12 276.729 9.12ZM274.425 5.58H279.045C279.013 5.124 278.889 4.724 278.673 4.38C278.465 4.036 278.189 3.768 277.845 3.576C277.509 3.376 277.137 3.276 276.729 3.276C276.321 3.276 275.949 3.376 275.613 3.576C275.277 3.768 275.001 4.04 274.785 4.392C274.577 4.736 274.457 5.132 274.425 5.58ZM284.192 3.468C283.648 3.484 283.168 3.636 282.752 3.924C282.344 4.212 282.056 4.608 281.888 5.112V9H281.072V2.748H281.84V4.248C282.056 3.808 282.34 3.452 282.692 3.18C283.052 2.908 283.432 2.756 283.832 2.724C283.912 2.716 283.98 2.712 284.036 2.712C284.1 2.712 284.152 2.716 284.192 2.724V3.468ZM290.489 0.48H291.197L294.737 9H293.849L292.745 6.336H288.917L287.825 9H286.925L290.489 0.48ZM292.553 5.676L290.837 1.464L289.097 5.676H292.553ZM298.123 9.084C297.699 9.084 297.307 8.996 296.947 8.82C296.587 8.644 296.275 8.408 296.011 8.112C295.755 7.808 295.555 7.464 295.411 7.08C295.267 6.696 295.195 6.3 295.195 5.892C295.195 5.452 295.263 5.04 295.399 4.656C295.543 4.264 295.743 3.916 295.999 3.612C296.263 3.308 296.571 3.072 296.923 2.904C297.275 2.728 297.667 2.64 298.099 2.64C298.635 2.64 299.099 2.776 299.491 3.048C299.891 3.32 300.227 3.656 300.499 4.056V2.748H301.231V9.024C301.231 9.6 301.091 10.084 300.811 10.476C300.539 10.876 300.167 11.176 299.695 11.376C299.231 11.576 298.723 11.676 298.171 11.676C297.459 11.676 296.883 11.548 296.443 11.292C296.003 11.036 295.643 10.692 295.363 10.26L295.867 9.864C296.115 10.256 296.443 10.548 296.851 10.74C297.267 10.932 297.707 11.028 298.171 11.028C298.579 11.028 298.951 10.952 299.287 10.8C299.631 10.656 299.903 10.436 300.103 10.14C300.311 9.844 300.415 9.472 300.415 9.024V7.788C300.175 8.18 299.847 8.496 299.431 8.736C299.015 8.968 298.579 9.084 298.123 9.084ZM298.351 8.4C298.599 8.4 298.835 8.356 299.059 8.268C299.291 8.18 299.503 8.064 299.695 7.92C299.887 7.768 300.047 7.6 300.175 7.416C300.303 7.232 300.383 7.044 300.415 6.852V4.92C300.295 4.616 300.123 4.348 299.899 4.116C299.675 3.876 299.419 3.692 299.131 3.564C298.851 3.428 298.559 3.36 298.255 3.36C297.903 3.36 297.587 3.436 297.307 3.588C297.035 3.732 296.803 3.928 296.611 4.176C296.427 4.416 296.283 4.688 296.179 4.992C296.075 5.296 296.023 5.6 296.023 5.904C296.023 6.24 296.083 6.56 296.203 6.864C296.323 7.16 296.487 7.428 296.695 7.668C296.911 7.9 297.159 8.08 297.439 8.208C297.727 8.336 298.031 8.4 298.351 8.4ZM305.733 9.12C305.285 9.12 304.869 9.036 304.485 8.868C304.101 8.692 303.769 8.456 303.489 8.16C303.209 7.856 302.989 7.508 302.829 7.116C302.677 6.724 302.601 6.304 302.601 5.856C302.601 5.272 302.733 4.736 302.997 4.248C303.269 3.76 303.641 3.372 304.113 3.084C304.585 2.788 305.121 2.64 305.721 2.64C306.337 2.64 306.873 2.788 307.329 3.084C307.793 3.38 308.157 3.772 308.421 4.26C308.685 4.74 308.817 5.268 308.817 5.844C308.817 5.908 308.817 5.972 308.817 6.036C308.817 6.092 308.813 6.136 308.805 6.168H303.453C303.493 6.616 303.617 7.016 303.825 7.368C304.041 7.712 304.317 7.988 304.653 8.196C304.997 8.396 305.369 8.496 305.769 8.496C306.177 8.496 306.561 8.392 306.921 8.184C307.289 7.976 307.545 7.704 307.689 7.368L308.397 7.56C308.269 7.856 308.073 8.124 307.809 8.364C307.545 8.604 307.233 8.792 306.873 8.928C306.521 9.056 306.141 9.12 305.733 9.12ZM303.429 5.58H308.049C308.017 5.124 307.893 4.724 307.677 4.38C307.469 4.036 307.193 3.768 306.849 3.576C306.513 3.376 306.141 3.276 305.733 3.276C305.325 3.276 304.953 3.376 304.617 3.576C304.281 3.768 304.005 4.04 303.789 4.392C303.581 4.736 303.461 5.132 303.429 5.58ZM315.332 9H314.516V5.508C314.516 4.772 314.408 4.236 314.192 3.9C313.976 3.556 313.636 3.384 313.172 3.384C312.852 3.384 312.536 3.464 312.224 3.624C311.912 3.776 311.636 3.988 311.396 4.26C311.164 4.524 310.996 4.828 310.892 5.172V9H310.076V2.748H310.82V4.164C310.988 3.86 311.208 3.596 311.48 3.372C311.752 3.14 312.06 2.96 312.404 2.832C312.748 2.704 313.104 2.64 313.472 2.64C313.816 2.64 314.108 2.704 314.348 2.832C314.588 2.96 314.78 3.144 314.924 3.384C315.068 3.616 315.172 3.9 315.236 4.236C315.3 4.564 315.332 4.932 315.332 5.34V9ZM319.784 9.12C319.328 9.12 318.908 9.036 318.524 8.868C318.148 8.692 317.816 8.452 317.528 8.148C317.248 7.844 317.028 7.496 316.868 7.104C316.716 6.712 316.64 6.296 316.64 5.856C316.64 5.264 316.772 4.724 317.036 4.236C317.3 3.748 317.668 3.36 318.14 3.072C318.612 2.784 319.156 2.64 319.772 2.64C320.356 2.64 320.872 2.776 321.32 3.048C321.768 3.312 322.1 3.672 322.316 4.128L321.524 4.38C321.348 4.06 321.1 3.812 320.78 3.636C320.468 3.452 320.12 3.36 319.736 3.36C319.32 3.36 318.94 3.468 318.596 3.684C318.252 3.9 317.976 4.196 317.768 4.572C317.568 4.948 317.468 5.376 317.468 5.856C317.468 6.328 317.572 6.756 317.78 7.14C317.988 7.524 318.264 7.832 318.608 8.064C318.952 8.288 319.332 8.4 319.748 8.4C320.02 8.4 320.28 8.352 320.528 8.256C320.784 8.16 321.004 8.032 321.188 7.872C321.38 7.704 321.508 7.524 321.572 7.332L322.376 7.572C322.264 7.868 322.076 8.136 321.812 8.376C321.556 8.608 321.252 8.792 320.9 8.928C320.556 9.056 320.184 9.12 319.784 9.12ZM323.924 10.92C324.036 10.928 324.144 10.932 324.248 10.932C324.352 10.94 324.428 10.936 324.476 10.92C324.572 10.904 324.664 10.848 324.752 10.752C324.84 10.656 324.944 10.472 325.064 10.2C325.184 9.928 325.352 9.528 325.568 9L322.844 2.748H323.708L326 8.16L328.112 2.748H328.928L325.688 10.812C325.632 10.964 325.548 11.104 325.436 11.232C325.324 11.368 325.184 11.472 325.016 11.544C324.856 11.624 324.656 11.668 324.416 11.676C324.344 11.684 324.268 11.684 324.188 11.676C324.116 11.676 324.028 11.668 323.924 11.652V10.92Z" fill="#2D2D2B"/>
</svg>
